<?xml version="1.0" encoding="UTF-8"?>
<svg width="236px" height="236px" viewBox="0 0 236 236" version="1.1" xmlns="http://www.w3.org/2000/svg" xmlns:xlink="http://www.w3.org/1999/xlink">
    <title>eyra</title>
    <g id="eyra" stroke="none" stroke-width="1" fill="none" fill-rule="evenodd">
        <g id="logo">
            <path d="M210.011184,98.5102315 C225.59318,124.011944 218.755059,179.691823 193.432321,208.432666 C179.524588,220.046562 162.893851,228.512997 144.637906,232.735312 L144.631507,232.735312 C146.182309,232.376645 147.721317,231.987325 149.247848,231.568022 C107.125545,236.071356 90.6770457,200.778937 102.609633,174.445288 C106.078934,166.788997 110.904931,161.848919 116.247078,158.069106 L116.486621,157.900631 L116.940914,157.586521 L117.168925,157.431435 L117.626608,157.125067 L117.971268,156.898517 L117.971268,156.898517 L118.317071,156.674636 L118.831374,156.347675 L119.34793,156.026088 L119.607003,155.86722 L120.126646,155.553156 L120.648152,155.24375 L121.171368,154.938713 L121.433569,154.787744 L121.959058,154.488725 L122.222308,154.340602 L122.749722,154.046954 L123.278225,153.756528 L124.072683,153.326302 L124.603231,153.042676 L125.40003,152.621306 L126.208388,152.198302 L127.531756,151.512153 L129.512491,150.488944 L130.577467,149.934846 L131.284824,149.563306 L131.98964,149.18924 L132.691538,148.811952 L133.009834,148.63903 L133.644239,148.29049 L133.960277,148.114741 L134.589846,147.759955 L134.845744,147.613822 L134.845744,147.613822 L135.355676,147.319004 L135.355676,147.319004 L135.862994,147.020547 C135.94732,146.970485 136.031531,146.92026 136.115624,146.869865 L136.618731,146.565415 L136.618731,146.565415 L137.118837,146.256613 C137.201929,146.204767 137.284891,146.152729 137.367717,146.100491 L137.863034,145.784626 C145.020964,141.168546 151.111208,134.954931 154.018932,123.228973 C166.534978,131.551493 204.987811,123.402489 210.011184,98.5102315 Z" id="Path" fill="#FFCF60"></path>
            <path d="M104.763045,62.8911867 L104.47039,62.3379235 L104.231397,61.8964512 L104.110499,61.6761222 L103.8663,61.2363291 L103.619436,60.7977564 L103.245551,60.1423624 L101.974119,57.9474476 L101.504462,57.1305801 L101.160305,56.5226992 L100.935783,56.1198503 L100.715856,55.7190086 L100.501094,55.3202454 L100.292063,54.9236319 L100.089332,54.5292395 L99.8934703,54.1371394 L99.7402469,53.8212676 L99.5922045,53.5069846 L99.4496451,53.1943281 L99.3128707,52.883336 L99.1821832,52.5740463 C99.1609259,52.522642 99.1399349,52.4713102 99.1192164,52.4200516 L98.9982254,52.1133864 C97.2927293,47.6796782 97.7449631,43.8127144 104.497372,41.0322668 C109.485718,38.9782095 115.309291,38.2535332 121.489571,38.1541739 L121.893133,38.1485732 L122.654466,38.1426923 L123.419073,38.1426364 L123.802543,38.1447027 L124.186759,38.1481172 L124.957327,38.1588464 L125.730582,38.1745356 L126.506328,38.1948964 L127.284368,38.2196404 L127.674187,38.233566 L128.455302,38.2643441 L129.238222,38.2987844 L130.02275,38.3365987 L130.415556,38.3566809 L131.595848,38.4211954 L132.778437,38.4913545 L133.96266,38.5661851 L135.938203,38.6986401 L139.885151,38.9763443 L141.458041,39.0858101 L143.40031,39.2152028 L144.522865,39.2855045 L145.640863,39.3511894 L146.753718,39.4113965 L147.492476,39.4480661 L148.228515,39.4816632 L148.961662,39.5119328 L149.691743,39.5386197 L150.599769,39.5665514 L151.502394,39.5879881 L152.041237,39.5975253 L152.577941,39.6044373 L153.290092,39.6093835 L153.927522,39.6094703 L154.561499,39.6052291 C154.666867,39.6041512 154.772086,39.6028853 154.877154,39.6014274 L155.505715,39.5903455 L156.130509,39.5744707 L156.751407,39.5536169 L157.060356,39.5412647 L157.675175,39.5125937 C164.415257,39.1676122 170.391056,37.834554 174.84542,34.399393 C184.635243,26.8495784 181.424857,20.1797023 176.022839,15.5031428 L176.031585,15.5081051 C211.697476,35.7458617 235.76,74.062879 235.76,118 C235.76,154.337647 219.301449,186.831194 193.432321,208.432666 C218.755059,179.691823 225.59318,124.011944 210.011184,98.5102315 C204.98786,123.402246 166.53573,131.551333 154.017884,123.22953 L154.065989,123.037581 C154.321015,121.991431 154.550877,120.901683 154.754094,119.765599 C154.766098,119.698013 154.778029,119.630659 154.789866,119.563141 C154.879529,119.051934 154.963824,118.530958 155.042616,118.000395 L155.042599,118.000458 C155.11235,117.530824 155.177774,117.053744 155.238796,116.568985 C159.243363,84.756387 131.647065,68.4295187 104.9719,63.2962438 L104.9719,63.2962438 L104.763045,62.8911867 Z" id="Combined-Shape" fill="#4272EF"></path>
            <path d="M155.238796,116.568985 C152.944387,134.79595 144.425806,142.165258 134.589846,147.759955 L133.960277,148.114741 C133.855066,148.173499 133.749718,148.232079 133.644239,148.29049 L133.009834,148.63903 C132.903853,148.696813 132.797752,148.75445 132.691538,148.811952 L131.98964,149.18924 L131.284824,149.563306 L130.577467,149.934846 L129.512491,150.488944 L127.531756,151.512153 L126.208388,152.198302 L125.40003,152.621306 L124.603231,153.042676 L124.072683,153.326302 L123.278225,153.756528 L122.749722,154.046954 L122.222308,154.340602 L121.959058,154.488725 L121.433569,154.787744 L121.171368,154.938713 L121.171368,154.938713 L120.648152,155.24375 L120.126646,155.553156 L119.607003,155.86722 L119.34793,156.026088 L118.831374,156.347675 L118.317071,156.674636 C118.086165,156.823021 117.855989,156.973125 117.626608,157.125067 L117.168925,157.431435 C117.092828,157.482916 117.016823,157.53461 116.940914,157.586521 L116.486621,157.900631 C111.049293,161.702059 106.130715,166.674724 102.609633,174.445288 C90.6770457,200.778937 107.125545,236.071356 149.247848,231.568022 C139.298812,234.300791 128.819814,235.76 118,235.76 C64.3416736,235.76 19.0654962,199.871754 4.86516446,150.788958 C13.5117614,164.671549 37.8880352,179.148906 55.3262347,155.338537 C65.0970106,141.997378 62.4226086,129.428214 58.0658538,118.208361 L57.785582,117.494039 L57.785582,117.494039 L57.5013626,116.783414 C57.4536983,116.665287 57.4058954,116.547315 57.357967,116.429499 L57.2138177,116.076521 L56.8100984,115.100979 L56.8100984,115.100979 L56.4028303,114.132789 L56.0755805,113.363591 L55.7479792,112.599201 L54.428372,109.537639 L53.9780171,108.48305 L53.6470716,107.69894 L53.3231385,106.920747 L53.111597,106.405267 L52.9039495,105.892458 L52.7005068,105.382339 L52.50158,104.874924 L52.3074799,104.370231 L52.2123371,104.11891 L51.9803544,103.493618 L51.9803544,103.493618 L51.7572495,102.87265 L51.6706294,102.625481 L51.5020975,102.133242 L51.3401025,101.643817 L51.1849554,101.157222 C51.1144102,100.931482 51.0461896,100.706665 50.9804346,100.482781 L50.8522537,100.036257 C50.7482455,99.6651937 50.651347,99.2967329 50.5622109,98.93091 L50.4590151,98.4931909 C49.4651517,94.1287073 49.6266394,90.1460996 52.0709658,86.6058464 C55.4987231,81.6412357 59.609447,80.5105765 64.2188859,80.9559392 L64.5489771,80.9904006 L64.5489771,80.9904006 L64.8807498,81.0300398 C64.9361846,81.0370677 64.9916887,81.0443037 65.047262,81.051744 L65.3815288,81.0988069 C65.4373774,81.1070492 65.4932944,81.1154882 65.5492797,81.1241201 L65.886007,81.1781954 L65.886007,81.1781954 L66.224356,81.2367171 L66.224356,81.2367171 L66.394134,81.2675882 L66.847263,81.3546368 L67.0748755,81.4007893 L67.5321745,81.4980829 L67.7618523,81.5491167 L68.2232426,81.65569 L68.6873167,81.7679135 L69.1540395,81.8853583 L69.6233761,82.0075953 L70.0952914,82.1341955 L70.5697504,82.26473 L71.2861319,82.4669699 L72.2498836,82.7463889 L74.2674525,83.3441642 L75.3010784,83.6494728 L76.035461,83.8632238 L76.7744114,84.0741925 L77.269528,84.2126212 L78.0158449,84.415932 L78.5157697,84.547997 L79.0175603,84.6768116 L79.5211839,84.8019732 L80.0266075,84.9230789 L80.2799841,84.981985 L80.7880463,85.0962519 L81.2021132,85.1853845 L81.2021132,85.1853845 L81.6172967,85.2709589 L81.6172967,85.2709589 L82.0335789,85.3527591 L82.0335789,85.3527591 L82.4509424,85.430569 L82.4509424,85.430569 L82.8693695,85.5041727 L82.8693695,85.5041727 L83.2888425,85.5733542 L83.2888425,85.5733542 L83.7093438,85.6378973 C83.7795121,85.6482559 83.8497225,85.6584123 83.9199746,85.668362 L84.3419854,85.7255426 L84.3419854,85.7255426 L84.7649804,85.7775449 C84.8355606,85.7857684 84.9061811,85.7937672 84.9768415,85.8015367 L85.4012799,85.8453664 C85.4720985,85.8522008 85.5429562,85.8587969 85.6138528,85.8651503 L86.0396948,85.9003214 C91.0842667,86.2811873 96.3207631,85.3928871 101.617742,81.6246483 C108.291986,76.8766309 108.362715,71.6149601 106.375734,66.4100191 L106.230369,66.0383417 C106.131207,65.7906314 106.027625,65.5430806 105.920113,65.2957507 L105.75596,64.9249294 L105.75596,64.9249294 L105.58628,64.5544859 C105.55756,64.4927793 105.528625,64.4310904 105.499482,64.3694202 L105.322203,63.9996298 L105.322203,63.9996298 L105.140317,63.6303327 L105.140317,63.6303327 L104.9719,63.2962438 C131.647065,68.4295187 159.243363,84.756387 155.238796,116.568985 Z" id="Path" fill="#FF5E5E"></path>
            <path d="M118,0.24 C139.09634,0.24 158.897007,5.78743486 176.022839,15.5031428 C181.424857,20.1797023 184.635243,26.8495784 174.84542,34.399393 C169.446191,38.5632245 161.811612,39.6385671 153.290092,39.6093835 L152.577941,39.6044373 C152.220867,39.6007283 151.86232,39.5951974 151.502394,39.5879881 L150.780737,39.5713743 C150.660164,39.5682465 150.539445,39.5649429 150.418585,39.5614687 L149.691743,39.5386197 L149.691743,39.5386197 L148.961662,39.5119328 L148.961662,39.5119328 L148.228515,39.4816632 L148.228515,39.4816632 L147.492476,39.4480661 L147.492476,39.4480661 L146.753718,39.4113965 L146.753718,39.4113965 L145.640863,39.3511894 L145.640863,39.3511894 L144.522865,39.2855045 L144.522865,39.2855045 L143.40031,39.2152028 C143.27535,39.207167 143.150317,39.1990615 143.025213,39.1908919 L141.458041,39.0858101 L139.885151,38.9763443 L135.938203,38.6986401 L133.96266,38.5661851 L133.96266,38.5661851 L132.778437,38.4913545 L132.778437,38.4913545 L131.595848,38.4211954 L131.595848,38.4211954 L130.415556,38.3566809 C130.284564,38.3498623 130.153628,38.3431662 130.02275,38.3365987 L129.238222,38.2987844 L129.238222,38.2987844 L128.455302,38.2643441 L128.455302,38.2643441 L127.674187,38.233566 C127.544163,38.2287575 127.414222,38.2241136 127.284368,38.2196404 L126.506328,38.1948964 C125.988377,38.1798294 125.471957,38.1676846 124.957327,38.1588464 L124.186759,38.1481172 C123.930372,38.1453995 123.674466,38.1435566 123.419073,38.1426364 L122.654466,38.1426923 L122.654466,38.1426923 L121.893133,38.1485732 C115.562885,38.2226538 109.59416,38.9335561 104.497372,41.0322668 C96.7359824,44.2281836 97.2982488,48.8595822 99.8934703,54.1371394 L100.089332,54.5292395 L100.089332,54.5292395 L100.292063,54.9236319 L100.292063,54.9236319 L100.501094,55.3202454 L100.501094,55.3202454 L100.715856,55.7190086 L100.715856,55.7190086 L100.935783,56.1198503 L100.935783,56.1198503 L101.160305,56.5226992 L101.160305,56.5226992 L101.504462,57.1305801 L101.504462,57.1305801 L101.974119,57.9474476 L101.974119,57.9474476 L103.245551,60.1423624 L103.245551,60.1423624 L103.619436,60.7977564 L103.619436,60.7977564 L103.8663,61.2363291 L103.8663,61.2363291 L104.110499,61.6761222 C104.15094,61.7495183 104.191244,61.8229618 104.231397,61.8964512 L104.47039,62.3379235 L104.47039,62.3379235 L104.705109,62.7804143 C104.743836,62.8542432 104.782359,62.9281111 104.820664,63.0020164 L105.047762,63.4458835 C108.150076,69.5918781 109.563271,75.9722466 101.617742,81.6246483 C94.4556298,86.7197318 87.4040919,86.5496865 80.7880463,85.0962519 L80.2799841,84.981985 C80.1954521,84.962541 80.110993,84.9429029 80.0266075,84.9230789 L79.5211839,84.8019732 L79.5211839,84.8019732 L79.0175603,84.6768116 L79.0175603,84.6768116 L78.5157697,84.547997 L78.5157697,84.547997 L78.0158449,84.415932 L78.0158449,84.415932 L77.269528,84.2126212 L77.269528,84.2126212 L76.7744114,84.0741925 L76.7744114,84.0741925 L76.035461,83.8632238 L76.035461,83.8632238 L75.3010784,83.6494728 L75.3010784,83.6494728 L74.2674525,83.3441642 L72.2498836,82.7463889 L72.2498836,82.7463889 L71.2861319,82.4669699 L71.2861319,82.4669699 L70.5697504,82.26473 L70.5697504,82.26473 L70.0952914,82.1341955 L70.0952914,82.1341955 L69.6233761,82.0075953 L69.6233761,82.0075953 L69.1540395,81.8853583 L69.1540395,81.8853583 L68.6873167,81.7679135 L68.6873167,81.7679135 L68.2232426,81.65569 L68.2232426,81.65569 L67.7618523,81.5491167 C67.6851795,81.5318491 67.60862,81.5148349 67.5321745,81.4980829 L67.0748755,81.4007893 C66.9988889,81.3851221 66.9230179,81.3697349 66.847263,81.3546368 L66.394134,81.2675882 C60.8981719,80.2524385 56.0292093,80.8729031 52.0709658,86.6058464 C49.1377741,90.8541503 49.4918702,95.7394446 51.1849554,101.157222 L51.3401025,101.643817 L51.3401025,101.643817 L51.5020975,102.133242 L51.5020975,102.133242 L51.6706294,102.625481 C51.6992455,102.707754 51.728121,102.790144 51.7572495,102.87265 L51.9350037,103.369077 C51.965118,103.452047 51.9954723,103.535131 52.0260601,103.618331 L52.2123371,104.11891 C52.243833,104.20257 52.2755494,104.286343 52.3074799,104.370231 L52.50158,104.874924 L52.50158,104.874924 L52.7005068,105.382339 L52.7005068,105.382339 L52.9039495,105.892458 L52.9039495,105.892458 L53.111597,106.405267 L53.111597,106.405267 L53.3231385,106.920747 L53.3231385,106.920747 L53.6470716,107.69894 L53.6470716,107.69894 L53.9780171,108.48305 L53.9780171,108.48305 L54.428372,109.537639 L54.428372,109.537639 L55.7479792,112.599201 L55.7479792,112.599201 L56.0755805,113.363591 L56.0755805,113.363591 L56.4028303,114.132789 L56.4028303,114.132789 L56.7288753,114.90675 C56.7830684,115.036138 56.8371757,115.165722 56.8911795,115.295502 L57.2138177,116.076521 C62.0304909,127.826785 65.7206772,141.145815 55.3262347,155.338537 C37.8857473,179.15203 13.5053651,164.667749 4.86527735,150.782078 C1.85329267,140.376662 0.24,129.376734 0.24,118 C0.24,52.9629479 52.9629479,0.24 118,0.24 Z" id="Path" fill="#222222"></path>
        </g>
    </g>
</svg>