<svg width="131" height="48" viewBox="0 0 131 48" fill="none" xmlns="http://www.w3.org/2000/svg">
<g clip-path="url(#clip0)">
<ellipse cx="24.6326" cy="24" rx="24.6326" ry="24" fill="white"/>
<path fill-rule="evenodd" clip-rule="evenodd" d="M42.2752 20.3589C45.2629 25.1232 43.9518 35.5253 39.0963 40.8947C36.4295 43.0644 33.2407 44.6462 29.7402 45.435H29.7389C30.0363 45.368 30.3314 45.2952 30.6241 45.2169C22.5474 46.0582 19.3934 39.4649 21.6815 34.5452C22.3467 33.1148 23.272 32.1919 24.2964 31.4858L24.3423 31.4543L24.4294 31.3956L24.4731 31.3666L24.5609 31.3094L24.627 31.2671L24.6933 31.2253L24.7919 31.1642L24.8909 31.1041L24.9406 31.0744L25.0403 31.0157L25.1403 30.9579L25.2406 30.901L25.2909 30.8728L25.3916 30.8169L25.4421 30.7892L25.5432 30.7344L25.6446 30.6801L25.7969 30.5997L25.8986 30.5467L26.0514 30.468L26.2064 30.389L26.4602 30.2608L26.8399 30.0696L27.0442 29.9661L27.1798 29.8967L27.3149 29.8268L27.4495 29.7563L27.5105 29.724L27.6322 29.6589L27.6928 29.6261L27.8135 29.5598L27.8626 29.5325L27.9604 29.4774L28.0576 29.4217C28.0738 29.4123 28.0899 29.4029 28.1061 29.3935L28.2025 29.3366L28.2984 29.279C28.3144 29.2693 28.3303 29.2596 28.3461 29.2498L28.4411 29.1908C29.8136 28.3284 30.9814 27.1676 31.5389 24.9769C33.9388 26.5317 41.312 25.0093 42.2752 20.3589Z" fill="#FFCF60"/>
<path fill-rule="evenodd" clip-rule="evenodd" d="M47.2128 24C47.2128 30.7887 44.0569 36.8591 39.0966 40.8947C43.9521 35.5253 45.2633 25.1232 42.2755 20.3589C41.2413 25.3524 32.8164 26.7393 31.0936 24.5826C30.4543 23.7104 29.5011 23.0038 28.4686 22.3897L28.3418 22.315C28.2783 22.2778 28.2144 22.241 28.1504 22.2045L28.022 22.132L27.8932 22.0602L27.764 21.9893L27.6346 21.9191L27.505 21.8497L27.3753 21.7809L27.2456 21.7128L27.1161 21.6454L26.9276 21.5481L26.7398 21.452L26.4603 21.31L26.0023 21.0779L25.8227 20.9865L25.5904 20.8672L25.4262 20.7818L25.2649 20.6969L25.1591 20.6404L25.0548 20.5841L24.952 20.5279L24.8508 20.4717L24.7513 20.4156L24.6536 20.3595C24.6213 20.3408 24.5893 20.3221 24.5577 20.3034L24.4637 20.2473C24.4017 20.2099 24.341 20.1724 24.2818 20.1349L24.194 20.0786C23.7895 19.8154 23.4573 19.5485 23.2317 19.2672L21.5809 17.1408C22.7338 16.2983 22.7744 15.3724 22.4384 14.453L22.4129 14.3849C22.4085 14.3735 22.4041 14.3622 22.3996 14.3508L22.3721 14.2828C22.3627 14.2601 22.3531 14.2375 22.3434 14.2148L22.3135 14.1469L22.2825 14.079L22.2506 14.0112L22.2177 13.9434L22.1839 13.8758L22.1493 13.8082L22.0947 13.7046L22.0386 13.6012L21.9928 13.5187L21.9696 13.4776L21.9228 13.3954L21.8754 13.3135L21.8038 13.191L21.56 12.781L21.4699 12.6284L21.4039 12.5148L21.3609 12.4395L21.3187 12.3647L21.2775 12.2902L21.2374 12.2161L21.1986 12.1424L21.161 12.0691L21.1316 12.0101L21.1032 11.9514L21.0759 11.893L21.0497 11.8349L21.0246 11.7771C21.0205 11.7675 21.0165 11.7579 21.0125 11.7483L20.9894 11.6911C20.6623 10.8627 20.749 10.1403 22.0438 9.62087C23.0003 9.23713 24.1169 9.10175 25.302 9.08318L25.3793 9.08214L25.5253 9.08104L25.6719 9.08103L25.7455 9.08141L25.8191 9.08205L25.9669 9.08406L26.1151 9.08699L26.2639 9.09079L26.4131 9.09541L26.4878 9.09801L26.6376 9.10376L26.7877 9.1102L26.9382 9.11726L27.0135 9.12101L27.2398 9.13307L27.4665 9.14617L27.6936 9.16015L28.0724 9.1849L28.8292 9.23678L29.1308 9.25723L29.5032 9.2814L29.7185 9.29454L29.9328 9.30681L30.1462 9.31806L30.2879 9.32491L30.429 9.33119L30.5696 9.33684L30.7096 9.34183L30.8837 9.34704L31.0568 9.35105L31.1601 9.35283L31.263 9.35412L31.3996 9.35505L31.5218 9.35506L31.6433 9.35427C31.6635 9.35407 31.6837 9.35383 31.7039 9.35356L31.8244 9.35149L31.9442 9.34852L32.0632 9.34463C32.083 9.3439 32.1028 9.34313 32.1225 9.34232L32.2404 9.33696C33.5327 9.27251 34.6786 9.02347 35.5327 8.38171C37.4098 6.97125 36.7943 5.72518 35.7584 4.8515L35.7601 4.85243C42.5989 8.63326 47.2128 15.7917 47.2128 24Z" fill="#4272EF"/>
<path fill-rule="evenodd" clip-rule="evenodd" d="M31.7734 23.7327C31.3334 27.1379 29.7 28.5146 27.814 29.5598L27.6933 29.6261C27.6731 29.6371 27.6529 29.648 27.6327 29.659L27.5111 29.7241C27.4907 29.7349 27.4704 29.7456 27.45 29.7564L27.3154 29.8269L27.1803 29.8967L27.0447 29.9662L26.8405 30.0697L26.4607 30.2608L26.2069 30.389L26.0519 30.468L25.8991 30.5468L25.7974 30.5998L25.6451 30.6801L25.5437 30.7344L25.4426 30.7892L25.3921 30.8169L25.2914 30.8728L25.2411 30.901L25.1408 30.958L25.0408 31.0158L24.9411 31.0744L24.8915 31.1041L24.7924 31.1642L24.6938 31.2253C24.6495 31.253 24.6054 31.2811 24.5614 31.3094L24.4736 31.3667C24.459 31.3763 24.4445 31.3859 24.4299 31.3956L24.3428 31.4543C23.3002 32.1645 22.3571 33.0935 21.682 34.5452C19.394 39.4649 22.5479 46.0582 30.6246 45.2169C28.7169 45.7275 26.7076 46.0001 24.633 46.0001C14.3443 46.0001 5.66279 39.2954 2.93994 30.1257C4.59788 32.7193 9.27192 35.4239 12.6156 30.9757C14.4891 28.4833 13.9763 26.1351 13.1409 24.039L13.0872 23.9055L13.0327 23.7728C13.0235 23.7507 13.0144 23.7287 13.0052 23.7067L12.9775 23.6407L12.9001 23.4585L12.822 23.2776L12.7593 23.1339L12.6965 22.9911L12.4434 22.4191L12.3571 22.2221L12.2936 22.0756L12.2315 21.9302L12.191 21.8339L12.1511 21.7381L12.1121 21.6428L12.074 21.548L12.0368 21.4537L12.0185 21.4068L11.974 21.29L11.9313 21.174L11.9147 21.1278L11.8823 21.0358L11.8513 20.9444L11.8215 20.8535C11.808 20.8113 11.7949 20.7693 11.7823 20.7275L11.7577 20.6441C11.7378 20.5747 11.7192 20.5059 11.7021 20.4376L11.6823 20.3558C11.4918 19.5404 11.5227 18.7964 11.9914 18.135C12.6487 17.2075 13.4369 16.9963 14.3207 17.0795L14.384 17.0859L14.4476 17.0933C14.4583 17.0946 14.4689 17.096 14.4796 17.0974L14.5437 17.1062C14.5544 17.1077 14.5651 17.1093 14.5758 17.1109L14.6404 17.121L14.7053 17.1319L14.7378 17.1377L14.8247 17.154L14.8684 17.1626L14.956 17.1808L15.0001 17.1903L15.0885 17.2102L15.1775 17.2312L15.267 17.2531L15.357 17.2759L15.4475 17.2996L15.5385 17.324L15.6758 17.3618L15.8606 17.414L16.2475 17.5256L16.4457 17.5827L16.5865 17.6226L16.7282 17.662L16.8231 17.6879L16.9662 17.7259L17.0621 17.7505L17.1583 17.7746L17.2549 17.798L17.3518 17.8206L17.4004 17.8316L17.4978 17.853L17.5772 17.8696L17.6568 17.8856L17.7366 17.9009L17.8166 17.9154L17.8969 17.9292L17.9773 17.9421L18.0579 17.9542C18.0714 17.9561 18.0848 17.958 18.0983 17.9598L18.1792 17.9705L18.2603 17.9802C18.2739 17.9818 18.2874 17.9833 18.301 17.9847L18.3823 17.9929C18.3959 17.9942 18.4095 17.9954 18.4231 17.9966L18.5048 18.0032C19.472 18.0743 20.4761 17.9084 21.4918 17.2044C22.7715 16.3174 22.7851 15.3344 22.4041 14.362L22.3762 14.2926C22.3572 14.2463 22.3374 14.2 22.3167 14.1538L22.2853 14.0845L22.2527 14.0153C22.2472 14.0038 22.2417 13.9923 22.2361 13.9808L22.2021 13.9117L22.1672 13.8427L22.1349 13.7803C27.2498 14.7393 32.5412 17.7895 31.7734 23.7327Z" fill="#FF5E5E"/>
<path fill-rule="evenodd" clip-rule="evenodd" d="M24.6326 2C28.6778 2 32.4744 3.03638 35.7582 4.85147C36.794 5.72515 37.4096 6.97122 35.5325 8.38168C34.4972 9.15957 33.0333 9.36047 31.3993 9.35502L31.2628 9.35409C31.1943 9.3534 31.1256 9.35237 31.0566 9.35102L30.9182 9.34792C30.8951 9.34733 30.8719 9.34671 30.8487 9.34606L30.7094 9.3418L30.5694 9.33681L30.4288 9.33116L30.2877 9.32488L30.146 9.31803L29.9326 9.30678L29.7183 9.29451L29.503 9.28138C29.4791 9.27987 29.4551 9.27836 29.4311 9.27683L29.1306 9.2572L28.829 9.23675L28.0722 9.18487L27.6934 9.16013L27.4663 9.14615L27.2396 9.13304L27.0133 9.12099C26.9881 9.11971 26.963 9.11846 26.9379 9.11723L26.7875 9.11017L26.6374 9.10373L26.4876 9.09798C26.4627 9.09709 26.4378 9.09622 26.4129 9.09538L26.2637 9.09076C26.1644 9.08795 26.0653 9.08568 25.9667 9.08403L25.8189 9.08202C25.7698 9.08151 25.7207 9.08117 25.6717 9.081L25.5251 9.08101L25.3791 9.08211C24.1653 9.09595 23.0209 9.22876 22.0436 9.62084C20.5554 10.2179 20.6632 11.0831 21.1608 12.0691L21.1984 12.1424L21.2372 12.216L21.2773 12.2901L21.3185 12.3646L21.3607 12.4395L21.4037 12.5148L21.4697 12.6283L21.5598 12.7809L21.8035 13.191L21.8752 13.3134L21.9226 13.3954L21.9694 13.4775C21.9771 13.4913 21.9849 13.505 21.9926 13.5187L22.0384 13.6012L22.0834 13.6838C22.0908 13.6976 22.0982 13.7114 22.1056 13.7252L22.1491 13.8082C22.744 14.9564 23.0149 16.1484 21.4914 17.2043C20.1181 18.1562 18.766 18.1244 17.4974 17.8529L17.4 17.8316C17.3838 17.8279 17.3676 17.8243 17.3514 17.8206L17.2545 17.7979L17.1579 17.7745L17.0617 17.7505L16.9659 17.7258L16.8228 17.6878L16.7278 17.662L16.5861 17.6226L16.4453 17.5826L16.2471 17.5256L15.8603 17.4139L15.6755 17.3617L15.5381 17.3239L15.4471 17.2995L15.3567 17.2759L15.2667 17.253L15.1772 17.2311L15.0882 17.2101L14.9997 17.1902C14.985 17.187 14.9703 17.1838 14.9557 17.1807L14.868 17.1625C14.8534 17.1596 14.8389 17.1567 14.8243 17.1539L14.7375 17.1376C13.6836 16.948 12.75 17.0639 11.9911 18.1349C11.4286 18.9286 11.4965 19.8413 11.8212 20.8534L11.8509 20.9443L11.882 21.0358L11.9143 21.1277C11.9198 21.1431 11.9253 21.1585 11.9309 21.1739L11.965 21.2666C11.9708 21.2821 11.9766 21.2977 11.9825 21.3132L12.0182 21.4067C12.0242 21.4224 12.0303 21.438 12.0364 21.4537L12.0736 21.548L12.1118 21.6428L12.1508 21.7381L12.1906 21.8339L12.2312 21.9302L12.2933 22.0756L12.3567 22.222L12.4431 22.4191L12.6961 22.991L12.7589 23.1338L12.8217 23.2775L12.8842 23.4221C12.8946 23.4463 12.905 23.4705 12.9153 23.4947L12.9772 23.6407C13.9008 25.8359 14.6083 28.3241 12.6152 30.9756C9.27112 35.4245 4.5963 32.7185 2.93961 30.1244C2.36208 28.1804 2.05273 26.1254 2.05273 24C2.05273 11.8497 12.1621 2 24.6326 2Z" fill="#222222"/>
</g>
<path d="M80.0721 11.2656C80.0721 10.9375 79.7193 10.5938 79.3825 10.5938H66.3766C66.0398 10.5938 65.687 10.9375 65.687 11.2656V32.3281C65.687 32.6562 66.0398 33 66.3766 33H79.3504C79.7193 33 80.0721 32.5938 80.0721 32.2656V29.6406C80.0721 29.3125 79.7193 28.9688 79.3825 28.9688H70.8188V23.6875H77.6826C78.0194 23.6875 78.4042 23.3594 78.4042 22.9844V20.5469C78.4042 20.2188 78.0194 19.875 77.6826 19.875H70.8188V14.625H79.3825C79.7513 14.625 80.0721 14.2812 80.0721 13.9531V11.2656Z" fill="black"/>
<path d="M96.2693 17.2812C95.8684 17.2812 95.5958 17.4688 95.4194 17.8281L91.2177 29.3125L87 17.8281C86.8717 17.4688 86.6151 17.2812 86.2142 17.2812H82.4455C81.9163 17.2812 81.6758 17.5781 81.8842 18.0625L87.1443 32.4531C87.3207 32.8125 87.5773 33 87.9301 33H89.8706L89.5338 33.9219C89.4055 34.3281 89.2612 34.6562 89.1169 34.8906C88.7961 35.3594 87.9943 35.875 86.7755 35.875H86.3906C86.0218 35.875 85.6529 36.25 85.6529 36.5781V39.0469C85.6529 39.375 86.0538 39.7188 86.3906 39.7188H86.7755C89.1008 39.7188 90.7526 39.4375 91.7469 38.8594C92.7252 38.2812 93.4949 37.2656 94.0402 35.8125L100.599 18.0625C100.792 17.625 100.551 17.2812 100.054 17.2812H96.2693Z" fill="black"/>
<path d="M107.415 33C107.752 33 108.105 32.6562 108.105 32.3281V23.375C108.105 21.9531 108.81 21.0938 109.853 21.0938C110.334 21.0938 110.863 21.3125 111.456 21.7344C111.713 21.9531 111.985 21.9219 112.274 21.6406L114.615 19.375C114.872 19.1094 114.84 18.625 114.535 18.375C113.3 17.4375 112.13 16.9688 110.991 16.9688C110.269 16.9688 109.628 17.1094 109.067 17.4062C108.505 17.7031 108.088 18.0312 107.848 18.375L107.287 17.5781C107.11 17.375 106.854 17.2812 106.501 17.2812H103.871C103.502 17.2812 103.181 17.625 103.181 17.9531V32.3281C103.181 32.6562 103.534 33 103.871 33H107.415Z" fill="black"/>
<path d="M121.704 33.3125C123.997 33.3125 125.505 32.8438 126.21 31.9062L126.804 32.7188C126.932 32.9062 127.188 33 127.557 33H130.187C130.572 33 130.909 32.6562 130.909 32.3281V23.9062C130.909 21.7344 130.348 20.0312 129.241 18.7969C128.119 17.5781 126.194 16.9688 123.452 16.9688C120.806 16.9688 118.721 17.4688 117.213 18.4688C116.78 18.75 116.748 19.0781 117.149 19.4375L119.154 21.3594C119.411 21.6094 119.747 21.6562 120.164 21.4844C121.223 20.9688 122.313 20.7188 123.452 20.7188C125.12 20.7188 125.954 21.6406 125.954 23.4688V24.2344C125.12 23.5 123.724 23.1406 121.784 23.1406C120.1 23.1406 118.689 23.5781 117.55 24.4375C116.412 25.2969 115.834 26.5312 115.834 28.1406C115.834 29.75 116.396 31.0156 117.534 31.9375C118.673 32.8594 120.052 33.3125 121.704 33.3125ZM123.083 29.7344C121.463 29.7344 120.918 29.2812 120.918 28.2656C120.918 27.2031 121.479 26.7656 123.356 26.7656C124.446 26.7656 125.152 26.8594 125.472 27.0625C125.793 27.2656 125.954 27.6562 125.954 28.2031C125.938 29.2188 124.991 29.7344 123.083 29.7344Z" fill="black"/>
<defs>
<clipPath id="clip0">
<rect width="49.2652" height="48" fill="white"/>
</clipPath>
</defs>
</svg>
